# Blender 4.5.0
# www.blender.org
mtllib Egg.mtl
o Cube.001_Cube.000
v -0.054487 0.048156 0.054487
v -0.054487 0.117799 0.054487
v -0.054487 0.048156 -0.054488
v -0.054487 0.117799 -0.054488
v 0.054487 0.048156 0.054487
v 0.054487 0.117799 0.054487
v 0.054487 0.048156 -0.054488
v 0.054487 0.117799 -0.054488
v -0.037474 0.173434 0.037474
v -0.037474 0.173434 -0.037475
v 0.037474 0.173434 -0.037475
v 0.037474 0.173434 0.037474
v -0.041289 0.019624 -0.041289
v -0.041289 0.019624 0.041288
v 0.041289 0.019624 -0.041289
v 0.041289 0.019624 0.041288
v 0.000000 0.048156 -0.074326
v 0.000000 0.117799 -0.074326
v 0.000000 0.048156 0.074325
v 0.000000 0.117799 0.074325
v 0.000000 0.173434 -0.051119
v 0.000000 0.173434 0.051118
v 0.000000 0.019624 -0.056321
v 0.000000 0.019624 0.056321
v -0.074325 0.048156 -0.000000
v -0.074325 0.117799 -0.000000
v 0.074325 0.048156 -0.000000
v 0.074325 0.117799 -0.000000
v -0.051118 0.173434 -0.000000
v 0.051118 0.173434 -0.000000
v -0.056321 0.019624 -0.000000
v 0.056321 0.019624 -0.000000
v -0.028745 0.198491 -0.000000
v -0.021073 0.198491 -0.021073
v 0.000000 0.198491 -0.028746
v 0.021073 0.198491 -0.021073
v 0.028745 0.198491 -0.000000
v 0.021073 0.198491 0.021073
v 0.000000 0.198491 0.028745
v -0.021073 0.198491 0.021073
v -0.029706 -0.000504 -0.000000
v -0.021778 -0.000504 0.021777
v 0.000000 -0.000504 -0.029707
v -0.021778 -0.000504 -0.021778
v 0.029706 -0.000504 -0.000000
v 0.021778 -0.000504 -0.021778
v 0.000000 -0.000504 0.029706
v 0.021778 -0.000504 0.021777
v 0.000000 -0.000504 -0.000000
v -0.013070 0.205480 -0.000000
v -0.009582 0.205480 -0.009582
v 0.000000 0.205480 -0.013071
v 0.009582 0.205480 -0.009582
v 0.013070 0.205480 -0.000000
v 0.009582 0.205480 0.009581
v 0.000000 0.205480 0.013070
v -0.009582 0.205480 0.009581
v 0.000000 0.205480 -0.000000
vn -0.9397 -0.0000 -0.3421
vn 0.3421 -0.0000 -0.9397
vn 0.9397 -0.0000 0.3421
vn -0.3421 -0.0000 0.9397
vn 0.2943 -0.5100 -0.8083
vn -0.8749 0.3649 0.3185
vn 0.2621 0.6428 0.7198
vn 0.3185 0.3649 0.8749
vn -0.3185 0.3649 -0.8749
vn 0.8749 0.3649 -0.3185
vn -0.5892 -0.7790 0.2145
vn -0.8083 -0.5100 -0.2943
vn 0.8083 -0.5100 0.2943
vn -0.2943 -0.5100 0.8083
vn 0.2943 -0.5100 0.8083
vn 0.5892 -0.7790 -0.2145
vn 0.3185 0.3649 -0.8749
vn -0.3185 0.3649 0.8749
vn 0.2621 0.6427 -0.7198
vn -0.2943 -0.5100 -0.8083
vn 0.3421 -0.0000 0.9397
vn -0.3421 -0.0000 -0.9397
vn -0.2621 0.6428 0.7198
vn -0.2145 -0.7790 0.5892
vn 0.8083 -0.5100 -0.2943
vn -0.8083 -0.5100 0.2943
vn -0.5892 -0.7790 -0.2145
vn 0.8749 0.3649 0.3185
vn -0.7198 0.6427 0.2621
vn -0.8749 0.3649 -0.3185
vn 0.9397 -0.0000 -0.3421
vn -0.9397 -0.0000 0.3421
vn -0.4028 0.9034 -0.1467
vn 0.4028 0.9034 0.1467
vn -0.1467 0.9034 -0.4028
vn 0.4028 0.9034 -0.1467
vn 0.7198 0.6427 -0.2621
vn 0.7198 0.6427 0.2621
vn -0.7198 0.6427 -0.2621
vn -0.2621 0.6427 -0.7198
vn -0.0000 -1.0000 -0.0000
vn 0.5892 -0.7790 0.2145
vn 0.2145 -0.7790 -0.5892
vn 0.2145 -0.7790 0.5892
vn -0.2145 -0.7790 -0.5892
vn -0.0000 1.0000 -0.0000
vn -0.4028 0.9034 0.1467
vn 0.1467 0.9034 0.4028
vn -0.1467 0.9034 0.4028
vn 0.1467 0.9034 -0.4028
vt 0.689771 0.880329
vt 0.689771 0.861230
vt 0.708311 0.861230
vt 0.708311 0.880329
vt 0.726841 0.848179
vt 0.726841 0.867279
vt 0.708311 0.867279
vt 0.708311 0.848179
vt 0.661382 0.897278
vt 0.661382 0.916378
vt 0.642842 0.916378
vt 0.642842 0.897278
vt 0.661382 0.848179
vt 0.661382 0.867279
vt 0.642842 0.867279
vt 0.642842 0.848179
vt 0.710825 0.840107
vt 0.724877 0.840107
vt 0.675571 0.861760
vt 0.682543 0.846647
vt 0.692314 0.846274
vt 0.709411 0.897190
vt 0.717610 0.888804
vt 0.720743 0.894578
vt 0.716127 0.899301
vt 0.675571 0.866748
vt 0.668599 0.881861
vt 0.658838 0.882234
vt 0.741040 0.866748
vt 0.734068 0.881861
vt 0.724307 0.882234
vt 0.675571 0.915848
vt 0.668599 0.930960
vt 0.658838 0.931334
vt 0.700376 0.917880
vt 0.686334 0.917880
vt 0.689241 0.911006
vt 0.696655 0.911006
vt 0.705787 0.888401
vt 0.691745 0.888401
vt 0.645366 0.889206
vt 0.659408 0.889206
vt 0.645366 0.840107
vt 0.659408 0.840107
vt 0.675571 0.847639
vt 0.670170 0.839705
vt 0.684606 0.888804
vt 0.698648 0.888804
vt 0.695741 0.895678
vt 0.688327 0.895678
vt 0.711561 0.882234
vt 0.646092 0.882234
vt 0.721862 0.888804
vt 0.714694 0.888804
vt 0.741040 0.847639
vt 0.735630 0.839705
vt 0.656393 0.888804
vt 0.649225 0.888804
vt 0.709411 0.908630
vt 0.701417 0.906136
vt 0.675571 0.896738
vt 0.670170 0.888804
vt 0.675571 0.880869
vt 0.680982 0.888804
vt 0.675571 0.910113
vt 0.683565 0.906912
vt 0.646092 0.931334
vt 0.719171 0.915190
vt 0.709411 0.908149
vt 0.716127 0.905458
vt 0.721617 0.909416
vt 0.705060 0.846274
vt 0.728785 0.909416
vt 0.723335 0.905370
vt 0.726595 0.905370
vt 0.727911 0.894578
vt 0.726193 0.898624
vt 0.722932 0.898624
vt 0.733400 0.904702
vt 0.728687 0.903229
vt 0.733400 0.898535
vt 0.728687 0.900421
vt 0.730356 0.888804
vt 0.740117 0.895845
vt 0.656393 0.937903
vt 0.649225 0.937903
vt 0.694759 0.839705
vt 0.701928 0.839705
vt 0.740117 0.906803
vt 0.731918 0.915190
vt 0.692491 0.903337
vt 0.701417 0.899763
vt 0.683565 0.900548
vt 0.709411 0.896561
vt 0.675571 0.898044
vt 0.724759 0.902002
vt 0.720841 0.903573
vt 0.720841 0.900774
s 1
usemtl tiny_treats_1
f 25/1/1 26/2/1 4/3/1 3/4/1
f 17/5/2 18/6/2 8/7/2 7/8/2
f 27/9/3 28/10/3 6/11/3 5/12/3
f 19/13/4 20/14/4 2/15/4 1/16/4
f 17/5/5 7/8/5 15/17/5 23/18/5
f 26/2/6 2/19/6 9/20/6 29/21/6
f 22/22/7 12/23/7 38/24/7 39/25/7
f 20/14/8 6/26/8 12/27/8 22/28/8
f 18/6/9 4/29/9 10/30/9 21/31/9
f 28/10/10 8/32/10 11/33/10 30/34/10
f 14/35/11 31/36/11 41/37/11 42/38/11
f 25/1/12 3/4/12 13/39/12 31/40/12
f 27/9/13 5/12/13 16/41/13 32/42/13
f 19/13/14 1/16/14 14/43/14 24/44/14
f 5/45/15 19/13/15 24/44/15 16/46/15
f 15/47/16 32/48/16 45/49/16 46/50/16
f 8/7/17 18/6/17 21/31/17 11/51/17
f 2/15/18 20/14/18 22/28/18 9/52/18
f 11/51/19 21/31/19 35/53/19 36/54/19
f 3/55/20 17/5/20 23/18/20 13/56/20
f 5/45/21 6/26/21 20/14/21 19/13/21
f 3/55/22 4/29/22 18/6/22 17/5/22
f 9/52/23 22/28/23 39/57/23 40/58/23
f 24/59/24 14/35/24 42/38/24 47/60/24
f 7/61/25 27/9/25 32/42/25 15/62/25
f 1/63/26 25/1/26 31/40/26 14/64/26
f 31/36/27 13/65/27 44/66/27 41/37/27
f 6/11/28 28/10/28 30/34/28 12/67/28
f 29/68/29 9/69/29 40/70/29 33/71/29
f 4/3/30 26/2/30 29/21/30 10/72/30
f 7/61/31 8/32/31 28/10/31 27/9/31
f 1/63/32 2/19/32 26/2/32 25/1/32
f 34/73/33 33/71/33 50/74/33 51/75/33
f 38/24/34 37/76/34 54/77/34 55/78/34
f 35/79/35 34/73/35 51/75/35 52/80/35
f 37/76/36 36/81/36 53/82/36 54/77/36
f 30/83/37 11/84/37 36/81/37 37/76/37
f 12/67/38 30/34/38 37/85/38 38/86/38
f 10/72/39 29/21/39 33/87/39 34/88/39
f 21/89/40 10/90/40 34/73/40 35/79/40
f 49/91/41 45/49/41 48/92/41 47/60/41
f 41/37/41 49/91/41 47/60/41 42/38/41
f 44/66/41 43/93/41 49/91/41 41/37/41
f 43/93/41 46/50/41 45/49/41 49/91/41
f 32/48/42 16/94/42 48/92/42 45/49/42
f 23/95/43 15/47/43 46/50/43 43/93/43
f 16/94/44 24/59/44 47/60/44 48/92/44
f 13/65/45 23/95/45 43/93/45 44/66/45
f 58/96/46 50/74/46 57/97/46 56/98/46
f 54/77/46 58/96/46 56/98/46 55/78/46
f 53/82/46 52/80/46 58/96/46 54/77/46
f 52/80/46 51/75/46 50/74/46 58/96/46
f 33/71/47 40/70/47 57/97/47 50/74/47
f 39/25/48 38/24/48 55/78/48 56/98/48
f 40/70/49 39/25/49 56/98/49 57/97/49
f 36/81/50 35/79/50 52/80/50 53/82/50
